{
    "asset" : {
        "generator" : "Khronos glTF Blender I/O v3.2.43",
        "version" : "2.0"
    },
    "scene" : 0,
    "scenes" : [
        {
            "name" : "Scene",
            "nodes" : [
                0,
                1,
                2
            ]
        }
    ],
    "nodes" : [
        {
            "name" : "Empty",
            "rotation" : [
                0.5,
                -0.5,
                0.5,
                0.5
            ],
            "scale" : [
                3,
                3,
                3
            ],
            "translation" : [
                0,
                0.9254121780395508,
                2.4356698989868164
            ]
        },
        {
            "mesh" : 0,
            "name" : "Plane"
        },
        {
            "name" : "Empty.001",
            "rotation" : [
                0.7071068286895752,
                0,
                0,
                0.7071068286895752
            ],
            "scale" : [
                3,
                3,
                3
            ],
            "translation" : [
                -3.233515501022339,
                0.9145296216011047,
                2.9401800632476807
            ]
        }
    ],
    "materials" : [
        {
            "doubleSided" : true,
            "name" : "tree material",
            "pbrMetallicRoughness" : {
                "baseColorTexture" : {
                    "index" : 0
                },
                "metallicFactor" : 0,
                "roughnessFactor" : 0.5
            }
        }
    ],
    "meshes" : [
        {
            "name" : "Plane.001",
            "primitives" : [
                {
                    "attributes" : {
                        "POSITION" : 0,
                        "NORMAL" : 1,
                        "TEXCOORD_0" : 2
                    },
                    "indices" : 3,
                    "material" : 0
                }
            ]
        }
    ],
    "textures" : [
        {
            "sampler" : 0,
            "source" : 0
        }
    ],
    "images" : [
        {
            "bufferView" : 4,
            "mimeType" : "image/png",
            "name" : "dino texture"
        }
    ],
    "accessors" : [
        {
            "bufferView" : 0,
            "componentType" : 5126,
            "count" : 5221,
            "max" : [
                0.6084697246551514,
                3.4455764293670654,
                3.3297414779663086
            ],
            "min" : [
                -0.6084697246551514,
                -0.0033650100231170654,
                -4.149131774902344
            ],
            "type" : "VEC3"
        },
        {
            "bufferView" : 1,
            "componentType" : 5126,
            "count" : 5221,
            "type" : "VEC3"
        },
        {
            "bufferView" : 2,
            "componentType" : 5126,
            "count" : 5221,
            "type" : "VEC2"
        },
        {
            "bufferView" : 3,
            "componentType" : 5123,
            "count" : 8406,
            "type" : "SCALAR"
        }
    ],
    "bufferViews" : [
        {
            "buffer" : 0,
            "byteLength" : 62652,
            "byteOffset" : 0
        },
        {
            "buffer" : 0,
            "byteLength" : 62652,
            "byteOffset" : 62652
        },
        {
            "buffer" : 0,
            "byteLength" : 41768,
            "byteOffset" : 125304
        },
        {
            "buffer" : 0,
            "byteLength" : 16812,
            "byteOffset" : 167072
        },
        {
            "buffer" : 0,
            "byteLength" : 69243,
            "byteOffset" : 183884
        }
    ],
    "samplers" : [
        {
            "magFilter" : 9729,
            "minFilter" : 9987
        }
    ],
    "buffers" : [
        {
            "byteLength" : 253128,
            "uri" : "data:application/octet-stream;base64,"
        }
    ]
}
